{"title":"Time Trap 2017.HC.HDRip.XviD.AC3.LLG","magnet":"magnet:?xt=urn:btih:7b89faf331e003f1c23a976b5c574c2399d77d2a&dn=Time+Trap+2017.HC.HDRip.XviD.AC3.LLG&tr=udp%3A%2F%2Ftracker.leechers-paradise.org%3A6969&tr=udp%3A%2F%2Fzer0day.ch%3A1337&tr=udp%3A%2F%2Fopen.demonii.com%3A1337&tr=udp%3A%2F%2Ftracker.coppersurfer.tk%3A6969&tr=udp%3A%2F%2Fexodus.desync.com%3A6969","uploader":"LifeLongg","categoryP":"video","categoryS":"movies","size":"984680789","seeders":"0","leechers":"0","description":"******************************Screenshots:********************\r\n\r\n <a href=\"\nhttp://picserver4u.com/d/0751.html\" rel=\"nofollow\" target=\"_NEW\">\nhttp://picserver4u.com/d/0751.html</a>\r\n <a href=\"\nhttp://picserver4u.com/d/0752.html\" rel=\"nofollow\" target=\"_NEW\">\nhttp://picserver4u.com/d/0752.html</a>\r\n <a href=\"\nhttp://picserver4u.com/d/0753.html\" rel=\"nofollow\" target=\"_NEW\">\nhttp://picserver4u.com/d/0753.html</a>\r\n <a href=\"\nhttp://picserver4u.com/d/0754.html\" rel=\"nofollow\" target=\"_NEW\">\nhttp://picserver4u.com/d/0754.html</a>\r\n <a href=\"\nhttp://picserver4u.com/d/0755.html\" rel=\"nofollow\" target=\"_NEW\">\nhttp://picserver4u.com/d/0755.html</a>\r\n\r\n************************************************************** \r\n\r\nComplete name                            : Time Trap 2017.HC.HDRip.XviD.AC3.LLG.mp4\r\nFormat                                   : MPEG-4\r\nFormat profile                           : Base Media\r\nCodec ID                                 : isom (isom/iso2/avc1/mp41)\r\nFile size                                : 919 MiB\r\nDuration                                 : 1 h 27 min\r\nOverall bit rate                         : 1 468 kb/s\r\nWriting application                      : Lavf57.56.101\r\n\r\nVideo\r\nID                                       : 1\r\nFormat                                   : AVC\r\nFormat/Info                              : Advanced Video Codec\r\nFormat profile                           : <a href=\"/cdn-cgi/l/email-protection\" class=\"__cf_email__\" data-cfemail=\"f9b1909e91b9b5ca\">[email&#xA0;protected]</a>\r\nFormat settings                          : CABAC / 4 Ref Frames\r\nFormat settings, CABAC                   : Yes\r\nFormat settings, RefFrames               : 4 frames\r\nCodec ID                                 : avc1\r\nCodec ID/Info                            : Advanced Video Coding\r\nDuration                                 : 1 h 27 min\r\nBit rate                                 : 1 200 kb/s\r\nWidth                                    : 720 pixels\r\nHeight                                   : 304 pixels\r\nDisplay aspect ratio                     : 2.35:1\r\nFrame rate mode                          : Constant\r\nFrame rate                               : 23.976 (23976/1000) FPS\r\nColor space                              : YUV\r\nChroma subsampling                       : 4:2:0\r\nBit depth                                : 8 bits\r\nScan type                                : Progressive\r\nBits/(Pixel*Frame)                       : 0.229\r\nStream size                              : 755 MiB (82%)\r\n\r\nAudio\r\nID                                       : 2\r\nFormat                                   : AC-3\r\nFormat/Info                              : Audio Coding 3\r\nCodec ID                                 : ac-3\r\nDuration                                 : 1 h 27 min\r\nBit rate mode                            : Constant\r\nBit rate                                 : 256 kb/s\r\nChannel(s)                               : 6 channels\r\nChannel positions                        : Front: L C R, Side: L R, LFE\r\nSampling rate                            : 48.0 kHz\r\nFrame rate                               : 31.250 FPS (1536 SPF)\r\nBit depth                                : 16 bits\r\nCompression mode                         : Lossy\r\nStream size                              : 160 MiB (17%)\r\nService kind                             : Complete Main\r\nDefault                                  : Yes\r\nAlternate group                          : 1","last_updated":"2018-04-29T12:01:09.164Z","parsed":{"xt":"urn:btih:7b89faf331e003f1c23a976b5c574c2399d77d2a","dn":"Time Trap 2017.HC.HDRip.XviD.AC3.LLG","tr":["udp://exodus.desync.com:6969","udp://open.demonii.com:1337","udp://tracker.coppersurfer.tk:6969","udp://tracker.leechers-paradise.org:6969","udp://zer0day.ch:1337"],"infoHash":"7b89faf331e003f1c23a976b5c574c2399d77d2a","infoHashBuffer":{"type":"Buffer","data":[123,137,250,243,49,224,3,241,194,58,151,107,92,87,76,35,153,215,125,42]},"name":"Time Trap 2017.HC.HDRip.XviD.AC3.LLG","announce":["udp://exodus.desync.com:6969","udp://open.demonii.com:1337","udp://tracker.coppersurfer.tk:6969","udp://tracker.leechers-paradise.org:6969","udp://zer0day.ch:1337"],"urlList":[]}}